<svg xmlns="http://www.w3.org/2000/svg" viewBox="0 0 400 480" width="100%" height="100%">
  <defs>
    <linearGradient id="grad" x1="0%" y1="0%" x2="100%" y2="100%">
      <stop offset="0%" stop-color="#292524"/>
      <stop offset="100%" stop-color="#0f172a"/>
    </linearGradient>
  </defs>
  <rect width="400" height="480" fill="url(#grad)" rx="16"/>
  <!-- T-Shirt Silhouette Outline -->
  <path d="M120 90 L160 90 Q200 120 240 90 L280 90 L340 140 L310 190 L280 170 L280 420 L120 420 L120 170 L90 190 L60 140 Z" fill="rgba(255,255,255,0.06)" stroke="rgba(255,255,255,0.15)" stroke-width="2"/>
  
        <circle cx="200" cy="200" r="75" fill="#EAB308"/>
        <!-- Dripping Smiley -->
        <ellipse cx="175" cy="180" rx="8" ry="16" fill="#000000"/>
        <ellipse cx="225" cy="180" rx="8" ry="16" fill="#000000"/>
        <path d="M165 220 Q 200 255 235 220" stroke="#000000" stroke-width="8" stroke-linecap="round" fill="none"/>
        <path d="M190 238 C 190 260, 195 270, 195 280 C 195 285, 185 285, 185 280 Z" fill="#000000"/>
        <path d="M210 236 C 210 255, 215 265, 215 275 C 215 280, 205 280, 205 275 Z" fill="#000000"/>
        <text x="200" y="110" fill="#111827" font-family="Impact, sans-serif" font-size="28" font-weight="900" text-anchor="middle" letter-spacing="3">BLISSFUL</text>
  <!-- Badge -->
  <rect x="20" y="20" width="100" height="26" rx="13" fill="#3B82F6"/>
  <text x="70" y="37" fill="#ffffff" font-family="sans-serif" font-size="11" font-weight="bold" text-anchor="middle">OVERSIZED</text>
  <!-- Footer Brand -->
  <text x="200" y="455" fill="rgba(255,255,255,0.4)" font-family="sans-serif" font-size="12" font-weight="600" text-anchor="middle" letter-spacing="1">THE STITCH CO. • 100% COMBED COTTON</text>
</svg>