<svg xmlns="http://www.w3.org/2000/svg" viewBox="0 0 400 480" width="100%" height="100%">
  <defs>
    <linearGradient id="grad_polo2" x1="0%" y1="0%" x2="100%" y2="100%">
      <stop offset="0%" stop-color="#27272a"/>
      <stop offset="100%" stop-color="#18181b"/>
    </linearGradient>
  </defs>
  <rect width="400" height="480" fill="url(#grad_polo2)" rx="16"/>
  
  <!-- Polo Collar Outline -->
  <polygon points="170,80 200,120 230,80 215,75 185,75" fill="#3f3f46" stroke="#52525b" stroke-width="2"/>
  <path d="M115 85 L160 85 L200 115 L240 85 L285 85 L345 135 L315 185 L285 165 L285 420 L115 420 L115 165 L85 185 L55 135 Z" fill="rgba(255,255,255,0.03)" stroke="rgba(255,255,255,0.12)" stroke-width="2"/>
  <!-- Quarter Zip / Placket -->
  <line x1="200" y1="120" x2="200" y2="190" stroke="#a1a1aa" stroke-width="2.5"/>
  
  <!-- Minimalist Embroidery -->
  <circle cx="200" cy="240" r="45" fill="#e4e4e7" opacity="0.08"/>
  <text x="200" y="275" fill="#ffffff" font-family="'Outfit', sans-serif" font-size="18" font-weight="900" text-anchor="middle" letter-spacing="2">WAFFLE KNIT POLO</text>
  <text x="200" y="295" fill="#a1a1aa" font-family="sans-serif" font-size="10" font-weight="800" text-anchor="middle" letter-spacing="3">240 GSM PIQUE TEXTURE</text>

  <!-- Badge -->
  <rect x="20" y="20" width="115" height="26" rx="13" fill="#18181b" stroke="#52525b" stroke-width="1.5"/>
  <text x="77" y="37" fill="#ffffff" font-family="sans-serif" font-size="11" font-weight="bold" text-anchor="middle">PREMIUM KNIT</text>
  
  <!-- Footer Brand -->
  <text x="200" y="455" fill="rgba(255,255,255,0.4)" font-family="sans-serif" font-size="12" font-weight="600" text-anchor="middle" letter-spacing="1">THE STITCH CO. • STRUCTURED FIT</text>
</svg>
